<?xml version="1.0" encoding="UTF-8" standalone="no"?>
<!-- Created with Inkscape (by Caetano Ramos) -->

<svg
   xmlns:dc="http://purl.org/dc/elements/1.1/"
   xmlns:cc="http://creativecommons.org/ns#"
   xmlns:rdf="http://www.w3.org/1999/02/22-rdf-syntax-ns#"
   xmlns:svg="http://www.w3.org/2000/svg"
   xmlns="http://www.w3.org/2000/svg"
   xmlns:xlink="http://www.w3.org/1999/xlink"
   xmlns:sodipodi="http://sodipodi.sourceforge.net/DTD/sodipodi-0.dtd"
   xmlns:inkscape="http://www.inkscape.org/namespaces/inkscape"
   version="1.1"
   id="svg2"
   width="601"
   height="89.581818"
   viewBox="0 0 601.00001 89.581819"
   sodipodi:docname="logo.svg"
   inkscape:version="0.92.4 (5da689c313, 2019-01-14)">
  <metadata
     id="metadata8">
    <rdf:RDF>
      <cc:Work
         rdf:about="">
        <dc:format>image/svg+xml</dc:format>
        <dc:type
           rdf:resource="http://purl.org/dc/dcmitype/StillImage" />
        <dc:title />
      </cc:Work>
    </rdf:RDF>
  </metadata>
  <defs
     id="defs6">
    <linearGradient
       inkscape:collect="always"
       id="linearGradient1176">
      <stop
         style="stop-color:#939dc7;stop-opacity:1;"
         offset="0"
         id="stop1172" />
      <stop
         style="stop-color:#939dc7;stop-opacity:0;"
         offset="1"
         id="stop1174" />
    </linearGradient>
    <linearGradient
       inkscape:collect="always"
       id="linearGradient1168">
      <stop
         style="stop-color:#bbc6ec;stop-opacity:1"
         offset="0"
         id="stop1164" />
      <stop
         style="stop-color:#b4bde9;stop-opacity:0;"
         offset="1"
         id="stop1166" />
    </linearGradient>
    <linearGradient
       inkscape:collect="always"
       xlink:href="#linearGradient1168"
       id="linearGradient1170"
       x1="308.90051"
       y1="130.31473"
       x2="308.73047"
       y2="97.219139"
       gradientUnits="userSpaceOnUse"
       gradientTransform="translate(-23.087378,155.76565)" />
    <linearGradient
       inkscape:collect="always"
       xlink:href="#linearGradient1176"
       id="linearGradient1178"
       x1="154.7607"
       y1="11.375321"
       x2="154.7607"
       y2="20.720404"
       gradientUnits="userSpaceOnUse"
       gradientTransform="translate(-23.081388,155.7656)" />
  </defs>
  <sodipodi:namedview
     pagecolor="#ffffff"
     bordercolor="#666666"
     borderopacity="1"
     objecttolerance="10"
     gridtolerance="10"
     guidetolerance="10"
     inkscape:pageopacity="0"
     inkscape:pageshadow="2"
     inkscape:window-width="1600"
     inkscape:window-height="837"
     id="namedview4"
     showgrid="false"
     inkscape:zoom="1.1696725"
     inkscape:cx="495.3878"
     inkscape:cy="101.41685"
     inkscape:window-x="-8"
     inkscape:window-y="-8"
     inkscape:window-maximized="1"
     inkscape:current-layer="g1185" />
  <g
     id="g1185"
     transform="translate(17.844746,-211.48041)">
    <g
       id="g1190"
       transform="matrix(0.58372152,0,0,0.62609693,-7.4283838,112.6166)">
      <path
         style="fill:#e6fbff;fill-opacity:1;stroke:#000000;stroke-width:3.65499997;stroke-miterlimit:4;stroke-dasharray:none;stroke-opacity:1"
         d="m 589.11556,159.74032 -13.2832,0.0606 h -37.47461 c -27.27282,0 -40.2233,0.0628 -47.16992,0.38672 l -9.20313,0.041 -3.41992,2.00196 c -7.51237,4.39874 -12.95093,12.22935 -14.93554,21.5078 -0.40033,1.87153 -0.62287,10.46281 -0.72461,21.43555 -0.37187,24.57643 -0.10973,62.91312 0.80078,68.26368 0.02,0.11754 0.0475,0.22885 0.0684,0.34571 0.14933,2.59793 0.31438,4.33984 0.49218,4.86523 1.66825,4.92943 6.38861,12.07299 9.77149,14.78516 1.74214,1.39672 5.20549,3.24352 7.69531,4.10351 4.1993,1.45047 8.50273,1.56589 59.45703,1.5918 l 54.92969,0.0273 v -13.67968 -27.78516 -0.43554 -6.41409 -34.61523 -0.0176 -0.85547 l -37.4043,0.22266 -37.40234,0.22266 -0.01,0.42773 h -0.46875 l 0.23828,10.90038 -0.23828,11.32814 8.36133,0.008 c 4.59826,0.004 10.37902,0.25035 12.84766,0.54687 l 4.49023,0.53906 v 16.03515 16.03714 l -3.13086,2.74804 -2.91406,2.5586 h -6.70703 l -4.88281,-0.14258 c -13.29734,-0.38858 -15.69815,-1.42446 -16.72852,-7.2168 -0.0301,-0.16932 -0.056,-0.58889 -0.084,-0.88086 -6e-5,-0.001 6e-5,-0.003 0,-0.004 -0.21183,-3.80351 -0.35994,-10.28861 -0.47266,-17.55081 -0.24764,-23.68214 0.0422,-61.65898 0.76367,-63.72852 1.31968,-3.78563 2.22247,-4.64683 21.21485,-5.06835 l 18.41601,-0.11915 29.08984,-0.1875 h 8.18165 v -0.0527 -0.36914 l 0.42773,-0.006 0.29102,-2.99219 c 0.16039,-1.64576 0.0281,-6.56546 -0.29493,-10.93164 l -0.42382,-5.72263 v -2.1543 h -0.16016 z m 197.42969,0.0469 -3.31641,0.0137 h -49.92187 c -30.35194,0 -43.61292,0.0577 -49.38867,0.41016 l -4.44336,0.0176 -0.01,2.875 c -0.0774,2.58936 -0.14707,7.60735 -0.20898,14.09959 -0.1393,7.47978 -0.1962,18.42323 -0.17188,31.33399 -0.0188,7.09482 -0.0351,14.4297 -0.0351,22.29297 v 64.60549 l -0.0117,3.7207 h 0.0117 54.71093 0.004 54.7168 v -11.11531 -11.11328 l -22.14453,-0.006 c -11.14716,-0.018 -23.7797,-0.25723 -28.60938,-0.55274 l -9.125,-0.55859 0.01,-0.80859 0.2207,-17.22851 0.23047,-18.03518 28.42578,-0.75392 17.64844,-0.46678 10.77929,-0.0859 v -0.19921 -11.33008 -0.0996 -11.43164 h -28.64062 -25.92188 l -2.71875,-0.0215 v -16.64844 -0.0117 -16.66016 h 29.49415 0.002 29.49414 v -5.85938 c 0,-0.14684 -0.007,-0.33636 -0.008,-0.49023 l -0.002,-1.5586 c -0.005,-4.34951 -0.24703,-9.35426 -0.53906,-11.12108 z m -801.476556,0.0137 -0.54297,3.9668 c -0.29902,2.18159 -0.54297,33.53662 -0.54297,69.67772 v 65.71095 h 10.68555 10.6875 v -52.5801 c 0,-28.91834 0.30353,-52.57811 0.67578,-52.57811 0.37225,-1e-5 2.55055,5.86629 4.83985,13.0371 2.2893,7.17081 5.97446,18.6174 8.18945,25.43555 2.21499,6.81815 6.81571,21.05293 10.22266,31.63283 3.40694,10.57988 7.38683,22.79502 8.8457,27.14453 l 2.65234,7.9082 16.69922,-0.008 16.697266,-0.006 15.29492,-46.37306 c 8.41233,-25.50558 16.47781,-49.95772 17.92383,-54.33595 1.88618,-5.71094 2.80217,-7.52294 3.24024,-6.41211 0.33585,0.85161 0.63887,25.30589 0.67187,54.34181 l 0.0586,52.79298 h 23.93945 23.9375 v -67.00554 c 0,-36.85327 -0.23932,-68.2083 -0.5332,-69.67773 l -0.53516,-2.67187 h -29.72266 -29.7207 l -1.71289,3.64258 c -0.942,2.00402 -6.95599,19.3915 -13.36524,38.63671 -6.40934,19.24522 -11.8229,35.15882 -12.0293,35.36523 -0.53754,0.53754 -1.66707,-2.48319 -4.654286,-12.45508 -5.87496,-19.61165 -7.92991,-26.39372 -8.61915,-28.42773 -0.39834,-1.17554 -2.50719,-7.90768 -4.68554,-14.96094 -2.17836,-7.05326 -4.75119,-14.84386 -5.7168,-17.31249 l -1.75586,-4.48828 h -30.5625 z m 259.669926,0 -0.004,1.02148 -0.42968,3.4668 c -0.30674,2.46863 -0.40693,27.57211 -0.22266,55.78515 0.33186,50.81005 0.35208,51.35096 2.29688,57.10743 3.55903,10.53456 9.42903,17.11917 18.04882,20.2461 4.47074,1.6218 6.66634,1.68715 49.98827,1.49804 44.26553,-0.19321 45.40306,-0.24029 49.26368,-2.02539 5.34504,-2.47146 10.47579,-7.26937 12.5957,-11.77929 4.23561,-9.01088 4.39844,-11.50862 4.39844,-67.55861 0,-28.83039 -0.23933,-53.62041 -0.53321,-55.08984 l -0.53515,-2.67187 h -9.61328 -9.61328 l -0.5293,3.20508 c -0.29146,1.76331 -0.54756,26.67416 -0.56836,55.35741 -0.036,49.61987 -0.11486,52.24524 -1.63281,54.06447 -0.87746,1.05163 -2.62151,2.30077 -3.875,2.77734 -1.3514,0.51381 -12.43513,0.86497 -27.23047,0.86328 -23.23907,-0.003 -25.13828,-0.11751 -27.6875,-1.67187 -6.02164,-3.67161 -5.7857,-1.29454 -6.05078,-60.94924 l -0.19141,-42.9414 c 2e-5,-0.007 0.002,-0.0104 0.002,-0.0176 0,-0.004 -0.002,-0.008 -0.002,-0.0117 l -0.004,-0.84375 h 0.006 v -2.24414 c 0,-0.12255 -0.013,-0.28955 -0.0176,-0.42969 l -0.0312,-7.15819 h -1.01954 -22.83397 -0.57031 -23.28125 z m 626.67186,0 v 6.83983 59.41796 3.41992 55.99808 13.67968 h 10.25782 10.25976 l 0.10742,-7.69531 c 0.0588,-4.23195 0.20276,-8.07861 0.32032,-8.54883 0.11755,-0.47021 0.28971,-22.68822 0.38281,-49.37306 l 0.16602,-47.48048 0.13671,-0.76562 3.01172,6.14062 c 1.7299,3.52663 4.65225,9.68285 6.49414,13.67969 5.66784,12.29904 15.45861,33.37181 19.26368,41.46289 1.99021,4.23197 5.2734,11.34937 7.29492,15.81643 4.4513,9.83628 13.55822,29.2198 15.66601,33.34375 l 1.5293,2.99219 h 3.17578 c 4.77926,0.23604 16.03963,0.40883 28.9238,0.41406 17.3017,0.007 24.94331,-0.0548 28.33791,-0.41406 h 2.7442 l 0.01,-2.24805 c 0.3873,-8.97876 0.481,-63.18894 0.3125,-99.77346 l 0.1172,-36.90623 h -1.0879 -9.60351 -0.025 -10.666 l -0.076,51.08201 c -0.041,28.09547 -0.3559,53.00636 -0.7012,55.35745 l -0.6289,4.27539 -2.6114,-5.55664 c -1.4365,-3.05641 -4.9155,-10.55907 -7.73035,-16.6719 -2.8149,-6.11282 -6.2837,-13.61547 -7.709,-16.67187 -4.22731,-9.0646 -8.63467,-18.56562 -13.87894,-29.92188 -8.35841,-18.09978 -12.79796,-27.4933 -16.46484,-34.83985 l -3.51953,-7.05271 h -0.89649 -31.00781 z m -640.35155,103.41993 -2.78711,0.0273 h -21.15039 -23.9375 v 17.95313 17.95507 h 0.82032 23.11718 0.41016 23.52734 v -17.95507 -0.0137 -17.93945 z m 171.84374,0.0273 v 17.95313 17.95507 h 0.85547 23.08203 23.08399 0.85547 v -17.95507 -17.95313 h -0.85547 -23.08399 -23.08203 z m 216.30078,0 v 0.42773 h -0.42773 l -0.23242,17.74024 -0.23047,17.74023 h 0.89062 23.08203 23.08399 0.88867 l -0.23047,-17.74023 -0.23047,-17.74024 h -0.42773 v -0.42773 h -23.08399 z m 190.65039,0 v 17.95313 17.95507 h 0.88868 23.05078 0.0332 23.08398 0.82032 v -17.95507 -17.95313 h -23.9375 z"
         id="path259-9"
         inkscape:connector-curvature="0" />
      <path
         style="fill:url(#linearGradient1170);fill-opacity:1;stroke:#000000;stroke-width:0;stroke-miterlimit:4;stroke-dasharray:none;stroke-opacity:0"
         d="m 589.11557,159.74031 -13.28319,0.0605 h -37.47461 c -27.27282,0 -40.2233,0.0628 -47.16992,0.38672 l -9.20313,0.041 -3.41992,2.00196 c -7.51237,4.39875 -12.95093,12.22936 -14.93554,21.50781 -0.40033,1.87153 -0.62287,10.46282 -0.72461,21.43555 -0.37187,24.57644 -0.10973,62.91312 0.80078,68.26368 0.02,0.11754 0.0475,0.22885 0.0684,0.34571 0.14933,2.59793 0.31438,4.33984 0.49218,4.86523 1.66825,4.92943 6.38861,12.07299 9.77149,14.78516 1.74214,1.39672 5.20549,3.24352 7.69531,4.10351 4.1993,1.45047 8.50273,1.56589 59.45703,1.5918 l 54.92968,0.0273 v -13.67968 -27.78516 -0.43554 -6.41409 -34.61523 -0.0176 -0.85547 l -37.40429,0.22266 -37.40234,0.22266 -0.01,0.42773 h -0.46875 l 0.23828,10.90039 -0.23828,11.32813 8.36133,0.008 c 4.59826,0.004 10.37902,0.25035 12.84766,0.54687 l 4.49023,0.53907 v 16.03515 16.03713 l -3.13086,2.74804 -2.91406,2.5586 h -6.70703 l -4.88281,-0.14258 c -13.29734,-0.38858 -15.69815,-1.42446 -16.72852,-7.2168 -0.0301,-0.16932 -0.056,-0.58889 -0.084,-0.88086 -6e-5,-10e-4 6e-5,-0.003 0,-0.004 -0.21183,-3.80351 -0.35994,-10.28861 -0.47266,-17.5508 -0.24764,-23.68214 0.0422,-61.65899 0.76367,-63.72852 1.31968,-3.78563 2.22247,-4.64683 21.21485,-5.06835 l 18.41601,-0.11915 29.08984,-0.1875 h 8.18164 v -0.0527 -0.36914 l 0.42773,-0.006 0.29102,-2.99219 c 0.16039,-1.64576 0.0281,-6.56546 -0.29493,-10.93164 l -0.42382,-5.72265 v -2.1543 h -0.16016 z m 197.42969,0.0469 -3.31641,0.0137 h -49.92187 c -30.35194,0 -43.61292,0.0577 -49.38867,0.41016 l -4.44336,0.0176 -0.01,2.875 c -0.0774,2.58936 -0.14707,7.60736 -0.20898,14.09961 -0.1393,7.47977 -0.1962,18.42322 -0.17188,31.33399 -0.0188,7.09482 -0.0351,14.4297 -0.0351,22.29297 v 64.60548 l -0.0117,3.7207 h 0.0117 54.71093 0.004 54.7168 v -11.11523 -11.11328 l -22.14453,-0.006 c -11.14716,-0.018 -23.7797,-0.25723 -28.60938,-0.55274 l -9.125,-0.55859 0.01,-0.80859 0.2207,-17.22851 0.23047,-18.03518 28.42578,-0.75391 17.64844,-0.46679 10.77929,-0.0859 v -0.19922 -11.33008 -0.0996 -11.43164 h -28.64062 -25.92188 l -2.71875,-0.0215 v -16.64844 -0.0117 -16.66016 h 29.49415 0.002 29.49414 v -5.85937 c 0,-0.14685 -0.007,-0.33636 -0.008,-0.49023 l -0.002,-1.5586 c -0.005,-4.34951 -0.24703,-9.35427 -0.53906,-11.12109 z m -801.476554,0.0137 -0.54297,3.9668 c -0.29902,2.18161 -0.54297,33.53664 -0.54297,69.67773 v 65.71095 H -5.3316829 5.3558169 V 246.5763 c 0,-28.91835 0.30353,-52.57812 0.67578,-52.57812 0.37225,-1e-5 2.55054,5.86629 4.8398401,13.0371 2.28931,7.17081 5.97447,18.6174 8.18946,25.43555 2.21499,6.81815 6.81571,21.05293 10.22265,31.63283 3.40695,10.57988 7.38684,22.79502 8.84571,27.14453 l 2.65234,7.9082 16.69922,-0.008 16.697268,-0.006 15.294907,-46.37306 c 8.41233,-25.50557 16.477808,-49.95771 17.923828,-54.33594 1.88618,-5.71094 2.80217,-7.52294 3.24024,-6.41211 0.33585,0.8516 0.63887,25.30589 0.67187,54.3418 l 0.0586,52.79298 h 23.93945 23.9375 v -67.00554 c 0,-36.85327 -0.23932,-68.20831 -0.5332,-69.67774 l -0.53516,-2.67187 H 128.45346 98.732762 l -1.71289,3.64258 c -0.942,2.00402 -6.95599,19.39151 -13.36523,38.63672 -6.40934,19.24522 -11.822897,35.15883 -12.029297,35.36523 -0.53754,0.53754 -1.66707,-2.48319 -4.654298,-12.45508 -5.87495,-19.61165 -7.9299,-26.39372 -8.61914,-28.42773 -0.39834,-1.17554 -2.50719,-7.90768 -4.68554,-14.96094 -2.17836,-7.05326 -4.75119,-14.84386 -5.7168,-17.3125 l -1.75586,-4.48828 h -30.5625 z m 259.669914,0 -0.004,1.02148 -0.42968,3.4668 c -0.30674,2.46864 -0.40693,27.57213 -0.22266,55.78516 0.33186,50.81005 0.35208,51.35096 2.29688,57.10743 3.55903,10.53456 9.42903,17.11917 18.04882,20.2461 4.47074,1.6218 6.66634,1.68715 49.98828,1.49804 44.26553,-0.19321 45.40306,-0.24029 49.26368,-2.02539 5.34504,-2.47146 10.47579,-7.26937 12.5957,-11.77929 4.23561,-9.01088 4.39844,-11.50862 4.39844,-67.55861 0,-28.83039 -0.23933,-53.62042 -0.53321,-55.08985 l -0.53515,-2.67187 h -9.61328 -9.61328 l -0.5293,3.20508 c -0.29146,1.76331 -0.54756,26.67417 -0.56836,55.35742 -0.036,49.61987 -0.11486,52.24524 -1.63281,54.06447 -0.87746,1.05163 -2.62151,2.30077 -3.875,2.77734 -1.3514,0.51381 -12.43513,0.86497 -27.23047,0.86328 -23.23907,-0.003 -25.13828,-0.11751 -27.6875,-1.67187 -6.02164,-3.67161 -5.7857,-1.29454 -6.05078,-60.94924 l -0.19141,-42.9414 c 2e-5,-0.007 0.002,-0.0104 0.002,-0.0176 0,-0.004 -0.002,-0.008 -0.002,-0.0117 l -0.004,-0.84375 h 0.006 v -2.24414 c 0,-0.12255 -0.013,-0.28955 -0.0176,-0.42969 l -0.0312,-7.1582 h -1.01954 -22.83398 -0.57031 -23.28125 z m 626.67187,0 v 6.83984 59.41797 3.41992 55.99807 13.67968 h 10.25782 10.25976 l 0.10742,-7.69531 c 0.0588,-4.23195 0.20276,-8.07861 0.32032,-8.54883 0.11755,-0.47021 0.28971,-22.68822 0.38281,-49.37306 l 0.16602,-47.48047 0.13671,-0.76562 3.01172,6.14062 c 1.7299,3.52663 4.65225,9.68285 6.49414,13.67969 5.66784,12.29904 15.45861,33.37181 19.26368,41.46289 1.99021,4.23196 5.2734,11.34936 7.29492,15.81642 4.4513,9.83628 13.55822,29.2198 15.66601,33.34375 l 1.5293,2.99219 h 3.17578 c 4.77926,0.23604 16.03963,0.40883 28.92381,0.41406 17.3018,0.007 24.94339,-0.0548 28.33799,-0.41406 h 2.7442 l 0.01,-2.24805 c 0.3873,-8.97876 0.481,-63.18893 0.3125,-99.77345 l 0.1172,-36.90625 h -1.0879 -9.60349 -0.025 -10.666 l -0.076,51.08203 c -0.041,28.09547 -0.3559,53.00635 -0.7012,55.35744 l -0.6289,4.27539 -2.6114,-5.55664 c -1.4365,-3.05641 -4.9156,-10.55906 -7.73052,-16.67189 -2.81481,-6.11282 -6.28361,-13.61547 -7.70901,-16.67188 -4.22724,-9.0646 -8.6346,-18.56561 -13.87887,-29.92187 -8.35841,-18.09979 -12.79796,-27.4933 -16.46484,-34.83985 l -3.51953,-7.05273 h -0.89649 -31.00781 z m -640.35156,103.41994 -2.78711,0.0273 h -21.15039 -23.9375 v 17.95313 17.95507 h 0.82032 23.11718 0.41016 23.52734 v -17.95507 -0.0137 -17.93945 z m 171.84376,0.0273 v 17.95313 17.95507 h 0.85547 23.08203 23.08399 0.85547 V 281.20123 263.2481 h -0.85547 -23.08399 -23.08203 z m 216.30077,0 v 0.42773 h -0.42773 l -0.23242,17.74024 -0.23047,17.74023 h 0.89062 23.08203 23.08399 0.88867 l -0.23047,-17.74023 -0.23047,-17.74024 h -0.42773 v -0.42773 h -23.08399 z m 190.65039,0 v 17.95313 17.95507 h 0.88868 23.05078 0.0332 23.08398 0.82032 V 281.20123 263.2481 h -23.9375 z"
         id="path259-4"
         inkscape:connector-curvature="0" />
      <path
         style="opacity:1;fill:url(#linearGradient1178);fill-opacity:1;stroke:none;stroke-width:6.35500002;stroke-miterlimit:4;stroke-dasharray:none;stroke-opacity:1"
         d="m 589.12157,159.74031 -13.2832,0.0606 h -37.47461 c -27.27282,0 -40.2233,0.0628 -47.16992,0.38672 l -9.20313,0.041 -3.41992,2.00196 c -7.51237,4.39875 -12.95093,12.22936 -14.93554,21.50781 -0.40033,1.87153 -0.62287,10.46282 -0.72461,21.43555 -0.37187,24.57644 -0.10973,62.9131 0.80078,68.26366 0.02,0.11754 0.0475,0.22885 0.0684,0.34571 0.14933,2.59793 0.31438,4.33984 0.49218,4.86523 1.66825,4.92943 6.38861,12.07299 9.77149,14.78516 1.74214,1.39672 5.20549,3.24352 7.69531,4.10351 4.1993,1.45047 8.50273,1.56589 59.45703,1.5918 l 54.92969,0.0273 v -13.67968 -27.78516 -0.43554 -6.41407 -34.61523 -0.0176 -0.85547 l -37.4043,0.22266 -37.40234,0.22266 -0.01,0.42773 h -0.46875 l 0.23828,10.90039 -0.23828,11.32813 8.36133,0.008 c 4.59826,0.004 10.37902,0.25035 12.84766,0.54687 l 4.49023,0.53907 v 16.03515 16.03711 l -3.13086,2.74804 -2.91406,2.5586 h -6.70703 l -4.88281,-0.14258 c -13.29734,-0.38858 -15.69815,-1.42446 -16.72852,-7.2168 -0.0301,-0.16932 -0.056,-0.58889 -0.084,-0.88086 -6e-5,-0.001 6e-5,-0.003 0,-0.004 -0.21183,-3.80351 -0.35994,-10.28861 -0.47266,-17.55078 -0.24764,-23.68214 0.0422,-61.65899 0.76367,-63.72852 1.31968,-3.78563 2.22247,-4.64683 21.21485,-5.06835 l 18.41601,-0.11915 29.08984,-0.1875 h 8.18165 v -0.0527 -0.36914 l 0.42773,-0.006 0.29102,-2.99219 c 0.16039,-1.64576 0.0281,-6.56546 -0.29493,-10.93164 l -0.42382,-5.72265 v -2.1543 h -0.16016 z m 197.42969,0.0469 -3.31641,0.0137 h -49.92187 c -30.35194,0 -43.61292,0.0577 -49.38867,0.41016 l -4.44336,0.0176 -0.01,2.875 c -0.0774,2.58936 -0.14707,7.60736 -0.20898,14.09961 -0.1393,7.47977 -0.1962,18.42322 -0.17188,31.33399 -0.0188,7.09482 -0.0351,14.4297 -0.0351,22.29297 v 64.60546 l -0.0117,3.7207 h 0.0117 54.71093 0.004 54.7168 v -11.11523 -11.11328 l -22.14453,-0.006 c -11.14716,-0.018 -23.7797,-0.25723 -28.60938,-0.55274 l -9.125,-0.55859 0.01,-0.80859 0.2207,-17.22851 0.23047,-18.03516 28.42578,-0.75391 17.64844,-0.46679 10.77929,-0.0859 v -0.19922 -11.33008 -0.0996 -11.43164 h -28.64062 -25.92188 l -2.71875,-0.0215 v -16.64844 -0.0117 -16.66016 h 29.49415 0.002 29.49414 v -5.85937 c 0,-0.14685 -0.007,-0.33636 -0.008,-0.49023 l -0.002,-1.5586 c -0.005,-4.34951 -0.24703,-9.35427 -0.53906,-11.12109 z m -801.476559,0.0137 -0.542969,3.9668 c -0.299022,2.18161 -0.542969,33.53664 -0.542969,69.67773 v 65.71093 H -5.325688 5.3618116 V 246.5763 c 0,-28.91835 0.303531,-52.57812 0.6757811,-52.57812 0.372249,-1e-5 2.550543,5.86629 4.8398423,13.0371 2.289302,7.17081 5.974463,18.6174 8.189454,25.43555 2.214992,6.81815 6.815711,21.05293 10.222656,31.63281 3.406945,10.57988 7.386834,22.79502 8.845703,27.14453 l 2.652344,7.9082 16.699219,-0.008 16.697265,-0.006 15.294915,-46.37304 c 8.412327,-25.50557 16.477809,-49.95771 17.923829,-54.33594 1.88618,-5.71094 2.80217,-7.52294 3.24024,-6.41211 0.33585,0.8516 0.63887,25.30589 0.67187,54.3418 l 0.0586,52.79296 h 23.93945 23.9375 v -67.00552 c 0,-36.85327 -0.23932,-68.20831 -0.5332,-69.67774 l -0.53516,-2.67187 H 128.45946 98.738758 l -1.71289,3.64258 c -0.942,2.00402 -6.955987,19.39151 -13.365227,38.63672 -6.40934,19.24522 -11.822899,35.15883 -12.029299,35.36523 -0.537543,0.53754 -1.667072,-2.48319 -4.654297,-12.45508 -5.874953,-19.61165 -7.929902,-26.39372 -8.619141,-28.42773 -0.398343,-1.17554 -2.50719,-7.90768 -4.685547,-14.96094 -2.178358,-7.05326 -4.751191,-14.84386 -5.716796,-17.3125 l -1.75586,-4.48828 h -30.5625 z m 259.669919,0 -0.004,1.02148 -0.42968,3.4668 c -0.30674,2.46864 -0.40693,27.57213 -0.22266,55.78516 0.33186,50.81003 0.35208,51.35094 2.29688,57.10741 3.55903,10.53456 9.42903,17.11917 18.04882,20.2461 4.47074,1.6218 6.66634,1.68715 49.98828,1.49804 44.26553,-0.19321 45.40306,-0.24029 49.26368,-2.02539 5.34504,-2.47146 10.47579,-7.26937 12.5957,-11.77929 4.23561,-9.01088 4.39844,-11.50862 4.39844,-67.55859 0,-28.83039 -0.23933,-53.62042 -0.53321,-55.08985 l -0.53515,-2.67187 h -9.61328 -9.61328 l -0.5293,3.20508 c -0.29146,1.76331 -0.54756,26.67417 -0.56836,55.35742 -0.036,49.61985 -0.11486,52.24522 -1.63281,54.06445 -0.87746,1.05163 -2.62151,2.30077 -3.875,2.77734 -1.3514,0.51381 -12.43513,0.86497 -27.23047,0.86328 -23.23907,-0.003 -25.13828,-0.11751 -27.6875,-1.67187 -6.02164,-3.67161 -5.7857,-1.29454 -6.05078,-60.94922 l -0.19141,-42.9414 c 2e-5,-0.007 0.002,-0.0104 0.002,-0.0176 0,-0.004 -0.002,-0.008 -0.002,-0.0117 l -0.004,-0.84375 h 0.006 v -2.24414 c 0,-0.12255 -0.013,-0.28955 -0.0176,-0.42969 l -0.0312,-7.1582 h -1.01954 -22.83398 -0.57031 -23.28125 z m 626.67187,0 v 6.83984 59.41797 3.41992 55.99805 13.67968 h 10.25782 10.25976 l 0.10742,-7.69531 c 0.0588,-4.23195 0.20276,-8.07861 0.32032,-8.54883 0.11755,-0.47021 0.28971,-22.68822 0.38281,-49.37304 l 0.16602,-47.48047 0.13671,-0.76562 3.01172,6.14062 c 1.7299,3.52663 4.65225,9.68285 6.49414,13.67969 5.66784,12.29904 15.45861,33.37181 19.26368,41.46289 1.99021,4.23196 5.2734,11.34934 7.29492,15.8164 4.4513,9.83628 13.55822,29.2198 15.66601,33.34375 l 1.5293,2.99219 h 3.17578 c 4.77926,0.23604 16.03963,0.40883 28.92381,0.41406 17.3017,0.007 24.94329,-0.0548 28.33789,-0.41406 h 2.7443 l 0.01,-2.24805 c 0.3873,-8.97876 0.481,-63.18891 0.3125,-99.77343 l 0.1172,-36.90625 h -1.0879 -9.6036 -0.025 -10.66599 l -0.076,51.08203 c -0.041,28.09547 -0.3559,53.00633 -0.7012,55.35742 l -0.6289,4.27539 -2.6113,-5.55664 c -1.4365,-3.05641 -4.9156,-10.55904 -7.7305,-16.67187 -2.81488,-6.11282 -6.28364,-13.61547 -7.70899,-16.67188 -4.22728,-9.0646 -8.63464,-18.56561 -13.87891,-29.92187 -8.35841,-18.09979 -12.79796,-27.4933 -16.46484,-34.83985 l -3.51953,-7.05273 h -0.89649 -31.00781 z m -640.35156,103.41992 -2.78711,0.0273 h -21.15039 -23.9375 v 17.95313 17.95507 h 0.82032 23.11718 0.41016 23.52734 v -17.95507 -0.0137 -17.93945 z m 171.84375,0.0273 v 17.95313 17.95507 h 0.85547 23.08203 23.08399 0.85547 v -17.95507 -17.95313 h -0.85547 -23.08399 -23.08203 z m 216.30078,0 v 0.42773 h -0.42773 l -0.23242,17.74024 -0.23047,17.74023 h 0.89062 23.08203 23.08399 0.88867 l -0.23047,-17.74023 -0.23047,-17.74024 h -0.42773 v -0.42773 h -23.08399 z m 190.65039,0 v 17.95313 17.95507 h 0.88868 23.05078 0.0332 23.08398 0.82032 v -17.95507 -17.95313 h -23.9375 z"
         id="path259"
         inkscape:connector-curvature="0" />
    </g>
  </g>
</svg>
