<?xml version="1.0" encoding="UTF-8" standalone="no"?>
<svg
   xmlns:dc="http://purl.org/dc/elements/1.1/"
   xmlns:cc="http://creativecommons.org/ns#"
   xmlns:rdf="http://www.w3.org/1999/02/22-rdf-syntax-ns#"
   xmlns:svg="http://www.w3.org/2000/svg"
   xmlns="http://www.w3.org/2000/svg"
   xmlns:sodipodi="http://sodipodi.sourceforge.net/DTD/sodipodi-0.dtd"
   xmlns:inkscape="http://www.inkscape.org/namespaces/inkscape"
   version="1.1"
   id="svg2"
   width="627.62531"
   height="161.69044"
   viewBox="0 0 627.62531 161.69044"
   sodipodi:docname="pico8.svg"
   inkscape:version="1.0.1 (3bc2e813f5, 2020-09-07)">
  <metadata
     id="metadata8">
    <rdf:RDF>
      <cc:Work
         rdf:about="">
        <dc:format>image/svg+xml</dc:format>
        <dc:type
           rdf:resource="http://purl.org/dc/dcmitype/StillImage" />
        <dc:title></dc:title>
      </cc:Work>
    </rdf:RDF>
  </metadata>
  <defs
     id="defs6" />
  <sodipodi:namedview
     pagecolor="#ffffff"
     bordercolor="#666666"
     borderopacity="1"
     objecttolerance="10"
     gridtolerance="10"
     guidetolerance="10"
     inkscape:pageopacity="0"
     inkscape:pageshadow="2"
     inkscape:window-width="1600"
     inkscape:window-height="837"
     id="namedview4"
     showgrid="false"
     inkscape:zoom="1.5720001"
     inkscape:cx="282.44262"
     inkscape:cy="56.728769"
     inkscape:window-x="-8"
     inkscape:window-y="-8"
     inkscape:window-maximized="1"
     inkscape:current-layer="g10" />
  <g
     inkscape:groupmode="layer"
     inkscape:label="Image"
     id="g10"
     transform="translate(-130.08915,-51.383002)">
    <g
       id="g64"
       transform="matrix(0.694043,0,0,0.69089663,155.60022,57.861718)">
      <path
         id="path14"
         style="fill:#000000;stroke-width:2.21628;stroke-opacity:0"
         d="m 34.669917,96.661329 v 11.810551 c 0,6.92461 -0.274055,12.31959 -0.660156,13.04102 -0.61643,1.15185 -1.4482,1.23046 -13.039063,1.23046 H 8.5878851 v 45.16407 45.16601 H 30.535151 52.480464 V 188.58321 164.09102 H 87.468745 122.45508 V 130.37618 96.661329 H 78.562495 Z m 114.503913,0 v 10.177741 10.17773 h 11.39844 c 11.88014,0 13.41015,0.19105 13.41015,1.66016 0,0.48737 0.42832,0.88476 0.95313,0.88476 0.83671,0 0.95508,4.34821 0.95508,35.30664 0,29.63552 -0.14218,35.30469 -0.88086,35.30469 -0.484,0 -1.02795,0.57175 -1.21094,1.27149 -0.31805,1.21627 -0.86939,1.27343 -12.48047,1.27343 h -12.14453 v 10.17774 10.17773 h 45.16406 45.16602 v -10.17773 -10.17774 h -9.54297 c -8.69381,0 -9.65333,-0.11426 -10.8125,-1.27343 -1.24226,-1.24222 -1.27344,-2.1205 -1.27344,-37.19141 0,-34.8611 0.0363,-35.93705 1.23047,-36.57617 0.69199,-0.37034 5.4246,-0.66016 10.81445,-0.66016 h 9.58399 V 106.83907 96.661329 h -45.16602 z m 141.24609,0 -0.17187,12.880861 -0.17188,12.88282 -11.29101,0.17382 -11.29102,0.17383 v 45.15039 45.15039 h 45.16407 45.16601 v -10.17773 -10.17774 h -20.63281 c -11.86664,0 -21.32521,-0.26428 -22.26367,-0.62109 l -1.63282,-0.61914 v -36.83789 -36.83789 l 1.43164,-0.38281 c 0.78722,-0.21097 10.80535,-0.38758 22.26368,-0.39258 l 20.83398,-0.01 v -10.1775 -10.177741 h -33.70117 z m 118.93164,0 v 11.767581 c 0,9.59578 -0.16333,11.76953 -0.88085,11.76953 -0.48402,0 -1.02991,0.57175 -1.2129,1.27149 -0.31532,1.20577 -0.86763,1.27345 -10.57031,1.27343 h -10.23633 v 45.16407 45.16601 h 45.16407 45.16601 v -12.72265 -12.72266 h 11.76758 11.76953 V 142.14571 96.661329 h -45.48437 z m 211.83204,0 v 24.490241 24.49219 h -10.4961 -10.49609 v 33.71484 33.71484 H 657.125 714.0586 V 154.86836 96.661329 H 667.6211 Z M 67.158198,117.0168 c 9.431765,0 10.175565,0.0878 10.916016,1.27344 0.436998,0.69975 1.155054,1.27148 1.595703,1.27148 0.618092,0 0.800781,2.98033 0.800781,13.04102 v 13.04102 l -12.880859,-0.0195 c -7.560594,-0.0113 -13.342709,-0.2874 -13.996094,-0.66796 -0.99984,-0.58235 -1.113281,-1.90881 -1.113281,-13.02149 0,-11.94889 0.04478,-12.37305 1.273437,-12.37305 0.699746,0 1.271484,-0.39739 1.271484,-0.88476 10e-7,-1.45037 1.5216,-1.66016 12.132813,-1.66016 z m 377.199222,0 c 9.73048,0 10.15204,0.0557 11.7168,1.50586 l 1.62305,1.50391 v 34.75 34.75 l -1.38672,1.5957 c -1.3813,1.58818 -1.43309,1.5957 -12.46484,1.5957 -10.54216,0 -11.09352,-0.0626 -11.41016,-1.27343 -0.18298,-0.69974 -0.72889,-1.27149 -1.21289,-1.27149 -0.73869,0 -0.87891,-5.66917 -0.87891,-35.30469 0,-30.95844 0.11641,-35.30664 0.95313,-35.30664 0.52481,0 0.95509,-0.39739 0.95507,-0.88476 10e-6,-1.44993 1.52144,-1.66016 12.10547,-1.66016 z m 199.27539,0 h 21.80274 c 11.99091,0 22.25322,0.17435 22.80664,0.38672 0.55343,0.21237 1.00781,0.78606 1.00781,1.27344 0,0.48737 0.42832,0.88476 0.95313,0.88476 0.81714,0 0.95508,1.87336 0.95508,13.04102 v 13.04102 l -24.01368,-0.0215 c -22.53957,-0.0199 -24.10189,-0.0941 -25.44531,-1.21484 -1.3878,-1.15776 -1.43164,-1.54515 -1.43164,-12.73242 v -11.53711 l 1.68359,-1.56055 z m -117.23242,28.62696 v 7.95117 c 0,4.49397 0.2565,7.95117 0.5918,7.95117 0.32629,0 0.77596,0.57369 0.99805,1.27344 0.39335,1.23936 0.96134,1.27148 21.98828,1.27148 h 21.58593 v -9.22266 -9.2246 h -22.58203 z m 116.29688,18.44726 h 24.23047 24.23047 v 13.04102 c 0,10.679 -0.16023,13.04101 -0.88086,13.04101 -0.484,0 -1.0299,0.57175 -1.2129,1.27149 -0.32497,1.24267 -0.86161,1.27302 -23.13281,1.26172 l -22.80273,-0.0117 -1.42969,-1.63282 c -1.37063,-1.56366 -1.43046,-2.11015 -1.41016,-12.87109 0.0189,-10.04078 0.14795,-11.38908 1.21485,-12.66797 z" />
      <path
         style="fill:#fff1e8;fill-opacity:1;stroke-width:2.21628;stroke-opacity:0"
         d="m 766.2213,95.389125 -11.13231,-0.318066 -0.31807,-11.45038 -0.31806,-11.450381 h -12.20237 c -6.71131,0 -11.79241,-0.228919 -11.29135,-0.508709 0.72961,-0.407407 0.91102,-2.474205 0.91102,-10.378969 0,-5.587316 -0.28574,-10.40418 -0.65851,-11.100705 -0.64034,-1.196474 -0.32421,-1.230444 11.45038,-1.230444 h 12.10889 v -5.627465 c 0,-3.095106 0.186,-8.247777 0.41333,-11.45038 l 0.41332,-5.822917 h 11.75108 c 9.98988,0 11.64051,0.133231 11.01333,0.888942 -0.74478,0.897399 -0.9502,19.322076 -0.23617,21.182796 0.27104,0.706332 2.57686,0.863023 11.76428,0.79944 l 11.42716,-0.07908 -0.0792,11.443416 c -0.0518,7.488184 0.15141,11.519571 0.58801,11.663749 0.36696,0.121182 -4.22786,0.124222 -10.21071,0.0068 -5.98285,-0.117466 -11.5614,-0.04203 -12.39678,0.167638 l -1.51888,0.381214 -0.17303,11.600808 -0.17304,11.60081 z"
         id="path33" />
      <path
         style="fill:#ff0000;fill-opacity:1;stroke-width:2.21628;stroke-opacity:0"
         d="M 757.31545,13.009998 V 2.5138159 h 9.22392 9.22392 V 13.009998 23.50618 h -9.22392 -9.22392 z"
         id="path35" />
      <path
         style="fill:#ff8080;fill-opacity:1;stroke-width:2.21628;stroke-opacity:0"
         d="M 803.75311,61.037984 V 51.496 h 7.95165 c 10.54348,0 10.49618,-0.043 10.49618,9.541984 0,3.903805 -0.26229,6.997454 -0.59326,6.997454 -0.3263,0 -0.77498,0.572519 -0.99707,1.272265 -0.37638,1.185864 -0.96249,1.272264 -8.63065,1.272264 h -8.22685 z"
         id="path37" />
      <path
         style="fill:#ffaaaa;fill-opacity:1;stroke-width:2.21628;stroke-opacity:0"
         d="m 780.21621,37.50109 v -9.541984 h 8.58779 c 6.91635,0 8.58778,0.172469 8.58778,0.88614 0,0.487376 0.42939,1.050911 0.9542,1.252299 0.78063,0.299556 0.9542,1.874063 0.9542,8.655845 v 8.289684 h -9.54198 -9.54199 z"
         id="path39" />
      <path
         style="fill:#ffaaaa;fill-opacity:1;stroke-width:2.21628;stroke-opacity:0"
         d="m 738.41959,47.20584 c 2.72751,-0.119531 7.0214,-0.118802 9.54199,0.0016 2.52058,0.120422 0.28899,0.218221 -4.9591,0.21733 -5.24809,-8.92e-4 -7.31039,-0.09942 -4.58289,-0.218951 z"
         id="path41" />
      <path
         style="fill:#ff6600;fill-opacity:1;stroke-width:2.21628;stroke-opacity:0"
         d="m 733.77856,38.773355 c 0,-6.616899 0.17588,-8.26972 0.88,-8.26972 0.48401,0 1.02973,-0.572519 1.21271,-1.272264 0.31049,-1.187303 0.8677,-1.272265 8.34392,-1.272265 h 8.0112 v 9.541984 9.541984 h -9.22391 -9.22392 z"
         id="path43" />
      <path
         style="fill:#ffff00;fill-opacity:1;stroke-width:2.21628;stroke-opacity:0"
         d="m 712.15006,67.717372 c 0,-1.224554 -0.28626,-2.226463 -0.63613,-2.226463 -0.37108,0 -0.63613,-2.12044 -0.63613,-5.089058 0,-2.968617 0.26505,-5.089058 0.63613,-5.089058 0.34987,0 0.63613,-0.858778 0.63613,-1.908396 V 51.496 h 8.26972 8.26972 v 9.223917 9.223918 h -8.26972 -8.26972 z"
         id="path45" />
      <path
         style="fill:#00ff00;fill-opacity:1;stroke-width:2.21628;stroke-opacity:0"
         d="m 735.20986,91.979513 c -1.37252,-0.679759 -1.4313,-1.042296 -1.4313,-8.827745 v -8.118875 h 9.22392 9.22391 v 8.905852 8.905851 l -7.79262,-0.07811 c -4.28594,-0.04296 -8.4367,-0.397099 -9.22391,-0.786977 z"
         id="path47" />
      <path
         style="fill:#0000ff;fill-opacity:1;stroke-width:2.21628;stroke-opacity:0"
         d="M 757.31545,108.42984 V 97.933655 h 9.22392 9.22392 v 10.496185 10.49618 h -9.22392 -9.22392 z"
         id="path49" />
      <path
         style="fill:#83769c;fill-opacity:1;stroke-width:2.21628;stroke-opacity:0"
         d="m 780.85235,84.256811 v -9.223918 h 8.90585 8.90585 v 7.944382 c 0,10.747166 0.23206,10.503454 -10.00143,10.503454 h -7.81027 z"
         id="path51" />
    </g>
  </g>
</svg>
