<?xml version="1.0" encoding="UTF-8" standalone="no"?>
<!-- Created with Inkscape (http://www.inkscape.org/) -->

<svg
   xmlns:dc="http://purl.org/dc/elements/1.1/"
   xmlns:cc="http://creativecommons.org/ns#"
   xmlns:rdf="http://www.w3.org/1999/02/22-rdf-syntax-ns#"
   xmlns:svg="http://www.w3.org/2000/svg"
   xmlns="http://www.w3.org/2000/svg"
   xmlns:sodipodi="http://sodipodi.sourceforge.net/DTD/sodipodi-0.dtd"
   xmlns:inkscape="http://www.inkscape.org/namespaces/inkscape"
   version="1.1"
   id="svg2"
   width="602"
   height="162.04945"
   viewBox="0 0 601.99998 162.04945"
   sodipodi:docname="logo1.svg"
   inkscape:version="0.92.4 (5da689c313, 2019-01-14)">
  <metadata
     id="metadata8">
    <rdf:RDF>
      <cc:Work
         rdf:about="">
        <dc:format>image/svg+xml</dc:format>
        <dc:type
           rdf:resource="http://purl.org/dc/dcmitype/StillImage" />
        <dc:title></dc:title>
      </cc:Work>
    </rdf:RDF>
  </metadata>
  <defs
     id="defs6" />
  <sodipodi:namedview
     pagecolor="#ffffff"
     bordercolor="#666666"
     borderopacity="1"
     objecttolerance="10"
     gridtolerance="10"
     guidetolerance="10"
     inkscape:pageopacity="0"
     inkscape:pageshadow="2"
     inkscape:window-width="1600"
     inkscape:window-height="837"
     id="namedview4"
     showgrid="false"
     inkscape:zoom="0.472"
     inkscape:cx="869.3309"
     inkscape:cy="348.08103"
     inkscape:window-x="-8"
     inkscape:window-y="-8"
     inkscape:window-maximized="1"
     inkscape:current-layer="svg2" />
  <g
     id="g313"
     transform="matrix(0.34190486,0,0,0.34190486,534.66673,-114.28468)">
    <path
       inkscape:connector-curvature="0"
       id="path186"
       d="m -1416.4117,335.7647 c -8.8442,0.0267 -16.3173,0.15308 -22.836,0.39063 -7.3617,0.17593 -13.1046,0.41666 -16.0136,0.71484 -5.2687,0.54007 -10.4667,1.46129 -15.5703,2.69922 -2.7412,0.63022 -5.3191,1.35465 -7.8496,2.17578 -0.2395,0.0756 -0.4779,0.15341 -0.7168,0.23047 -0.1646,0.0548 -0.3317,0.10257 -0.4961,0.1582 -0.302,0.10217 -0.6058,0.21464 -0.9082,0.32032 -40.6656,13.66751 -73.2152,48.4831 -79.4434,88.23437 -0.7805,4.98153 -1.3497,26.67724 -1.7188,55.63867 -0.029,1.36364 -0.059,2.36968 -0.088,3.78711 -0.8298,40.48918 -0.8539,86.31063 -0.3008,126.58399 0.2434,47.02281 0.9036,86.1585 1.9941,92.59179 0.602,3.55127 1.4009,7.05123 2.3477,10.50196 0.1789,1.00769 0.361,1.87151 0.5468,2.42187 0.3971,1.17574 0.8162,2.33643 1.2422,3.49219 12.8805,38.33416 46.5934,68.89949 87.6309,77.81055 1.8427,0.40013 4.1824,0.75628 7.0332,1.07226 0.677,0.0905 1.5908,0.17946 2.6406,0.26758 11.9655,1.10354 31.7508,1.63475 62.4473,1.72266 l 58.793,0.16992 v -235.09766 -0.0332 -235.0625 -0.0703 l -50.3184,-0.56641 c -10.7923,-0.12183 -20.1776,-0.17916 -28.416,-0.1543 z m 42.7168,36.66211 v 198.09375 198.0918 l -36.5469,-0.26367 c -58.2197,-0.42106 -65.9669,-2.5409 -88.3828,-24.18164 -9.8131,-9.4738 -16.1528,-17.78926 -19.8145,-25.99219 l -5.3847,-12.0625 -1.3711,-109.10938 c -1.5833,-125.84896 -0.1682,-156.46635 8.0664,-174.45312 7.4567,-16.28764 22.5795,-31.82031 38.7148,-39.76367 14.8963,-7.33343 36.6606,-10.09623 80.8848,-10.26758 z"
       style="fill:#fb0d0d;fill-opacity:1;stroke:#fb0d0d;stroke-width:2.118644;stroke-opacity:1" />
    <path
       inkscape:connector-curvature="0"
       id="path191"
       d="m -1446.6598,433.83502 c -4.1128,0.0692 -8.1479,0.70783 -12.0195,1.88281 -13.0286,3.23273 -22.4612,11.31517 -27.0508,22.91797 -0.1102,0.20726 -0.2278,0.40552 -0.3359,0.61523 -1.3245,2.56957 -2.1177,6.35571 -2.4317,10.62109 -0.2877,2.43026 -0.4183,4.95394 -0.3652,7.57618 0.3857,19.02428 9.2826,32.58476 26.1856,39.90625 33.613,14.55947 70.646,-19.34284 59.0293,-54.03907 -5.4161,-16.17632 -16.975,-26.03894 -33.0079,-28.54101 -3.3517,-0.68172 -6.7028,-0.99503 -10.0039,-0.93945 z"
       style="fill:#fb0d0d;fill-opacity:1;stroke:#fb0d0d;stroke-width:2.118644;stroke-opacity:1" />
    <path
       inkscape:connector-curvature="0"
       id="path196"
       d="m -1254.1578,335.3233 c -15.5498,-0.0606 -28.2841,0.39907 -31.084,1.54882 -0.1093,0.0449 -0.2153,0.10204 -0.3184,0.17579 -0.1033,0.0735 -0.2016,0.16532 -0.2988,0.27929 -1.3628,1.59873 -2.1253,7.80161 -2.5488,34.84571 -0.06,3.84058 -0.113,8.10611 -0.1602,12.83593 -3e-4,0.0324 0,0.0555 0,0.0879 -0.045,4.53433 -0.086,9.43887 -0.1211,14.87305 -0.2269,34.53966 -0.2578,88.02596 -0.2578,171.18945 0,128.02032 0.6353,233.40092 1.4121,234.17774 0.1085,0.10851 0.4488,0.20758 0.9023,0.30273 l 0.4024,1.50391 23.4023,-0.46875 c 25.0529,0.23415 61.4451,-0.56063 71.3379,-2.0957 3.5069,-0.54416 7.8041,-1.65621 12.3867,-3.12891 8.0428,-1.9911 14.6943,-4.89757 21.9864,-9.12305 0,-6.7e-4 0,-0.001 0,-0.002 28.4109,-14.78176 48.9634,-39.50919 60.1738,-72.44141 1.5607,-4.58504 2.5057,-9.01254 3.082,-21.90039 3.096,-51.50265 2.9503,-224.9811 -0.5586,-260.04101 -0.3508,-5.71649 -0.7766,-9.24701 -1.291,-11.18164 -4.7087,-17.71012 -13.8792,-34.24431 -26.0566,-48.23633 -4.5402,-5.30018 -9.5413,-10.19614 -14.9649,-14.64649 -14.6249,-12.18757 -31.8523,-21.15104 -50.1582,-25.36914 -4.6325,-1.06744 -18.8153,-1.92201 -35.0371,-2.4375 -10.6193,-0.44204 -22.0282,-0.70827 -32.2324,-0.74804 z m 58.6406,212.96093 c 0.077,-5e-5 0.1328,0.002 0.209,0.002 15.147,0.46923 30.2833,7.96069 39.2871,21.5664 5.1155,7.73 5.8438,10.87719 5.8438,25.22461 0,14.84199 -0.609,17.25993 -6.4493,25.57813 -3.5475,5.05271 -10.5022,11.42523 -15.4531,14.16211 -5.1976,2.87329 -14.1104,5.42269 -21.0918,6.03125 -10.425,0.90877 -13.6919,0.2098 -23.7109,-5.07032 -29.3721,-15.47947 -34.2344,-54.96682 -9.4492,-76.72851 7.2582,-6.3728 16.2031,-9.83175 25.4277,-10.61719 1.7092,-0.0921 3.4851,-0.14714 5.3867,-0.14844 z"
       style="fill:#fb0d0d;fill-opacity:1;stroke:#fb0d0d;stroke-width:2.118644;stroke-opacity:1" />
    <path
       inkscape:connector-curvature="0"
       id="path206"
       d="m -990.21981,508.06741 c -2.6431,-1.66843 -3.2858,-10.22066 -3.8184,-50.81502 l -0.6403,-48.80897 h 11.2628 11.2628 l 20.6445,27.54238 c 11.3544,15.1483 21.479,27.54237 22.4991,27.54237 3.2023,0 4.4086,-8.78108 4.4385,-32.30932 l 0.029,-22.77543 h 10.5932 10.5932 v 50.84746 50.84746 h -6.2562 c -11.0275,0 -15.5587,-3.93884 -38.1418,-33.15595 -17.8964,-23.15361 -22.4469,-27.91133 -23.6858,-24.76456 -0.8434,2.1423 -1.6006,16.0508 -1.6825,30.9078 l -0.1489,27.01271 -6.8856,-0.0324 c -3.787,-0.0178 -8.3156,-0.93516 -10.0635,-2.03848 z"
       style="fill:#fb0d0d;fill-opacity:1;stroke:#fb0d0d;stroke-width:2.118644;stroke-opacity:1" />
    <path
       inkscape:connector-curvature="0"
       id="path216"
       d="m -824.96641,408.44439 v 49.78711 49.78906 h 9.5351 9.5332 V 458.2315 408.44439 h -9.5332 z m 95.11909,0 0.63867,48.80859 c 0.5322,40.56425 1.17721,49.15647 3.81836,50.86914 1.74788,1.13342 6.03939,1.81334 9.53515,1.50977 l 6.35547,-0.55273 0.58594,-32.3086 c 0.32166,-17.77012 1.2736,-32.27477 2.11719,-32.23047 1.66945,0.0877 30.35278,37.89735 39.61133,52.21485 6.16583,9.53489 15.24039,14.17421 23.61523,12.07226 l 5.04492,-1.26758 v -49.55859 -49.55664 h -8.21484 c -4.51834,0 -9.25759,1.25439 -10.53125,2.78906 -1.35577,1.6336 -2.56163,14.83699 -2.9082,31.84961 l -0.5918,29.0586 -20.0293,-26.70899 c -27.87399,-37.16976 -27.68239,-36.98828 -39.30273,-36.98828 z"
       style="fill:#fb0d0d;fill-opacity:1;stroke:#fb0d0d;stroke-width:2.118644;stroke-opacity:1" />
    <path
       inkscape:connector-curvature="0"
       id="path233"
       d="m -329.20279,408.34869 -38.66602,0.57617 -38.66406,0.57812 -0.56836,49.25782 -0.57031,49.25976 h 39.23437 39.23438 v -8.47461 -8.47461 h -28.60156 -28.60157 v -12.71289 -12.71093 h 26.48243 26.48242 v -8.41211 -8.41211 l -27.01172,-0.5918 c -26.54948,-0.5828 -27.02559,-0.67916 -27.71875,-5.57617 -0.38789,-2.74034 -0.13109,-7.26789 0.57031,-10.0625 1.22558,-4.88311 2.00607,-5.08203 20.00781,-5.08203 10.30246,0 23.15427,-0.60664 28.56055,-1.34766 9.7766,-1.34002 9.83008,-1.39012 9.83008,-9.58008 z m -237.28906,0.0957 v 10.5918 10.59375 h 15.89062 15.89063 v 39.19531 39.19531 h 10.54492 10.54492 l 0.57812,-38.66601 0.57618,-38.66602 15.36132,-0.62109 15.35938,-0.62305 v -10.5 -10.5 h -42.37305 z"
       style="fill:#fb0d0d;fill-opacity:1;stroke:#fb0d0d;stroke-width:2.118644;stroke-opacity:1" />
    <path
       inkscape:connector-curvature="0"
       id="path243"
       d="m -174.54264,408.20025 -0.14843,27.13477 c -0.0819,14.92399 -0.82979,28.86016 -1.66211,30.9707 -1.20705,3.06079 -6.22144,-2.29793 -24.77539,-26.48242 l -23.25977,-30.32032 -10.03515,-0.64648 -10.03321,-0.64453 v 49.90429 49.9043 h 9.53321 9.5332 l 0.15039,-27.01367 c 0.0819,-14.85699 0.82885,-28.73801 1.66016,-30.8457 1.20387,-3.05225 5.80923,1.88935 22.62695,24.27929 11.61327,15.4611 22.78306,29.81809 24.82226,31.9043 2.34646,2.40055 6.83311,3.79297 12.22071,3.79297 h 8.51172 l -0.56641,-50.31641 -0.56836,-50.31836 -9.00391,-0.65234 z m 103.814457,0.24414 v 49.78711 49.78906 l 27.01172,-0.0215 c 23.82238,-0.0183 28.26733,-0.60421 37.6230395,-4.96094 20.0094205,-9.31789 29.7747605,-25.87437 28.1894605,-47.791 -1.17274,-16.21291 -7.2524,-27.31521 -19.5039105,-35.62304 -13.7830995,-9.34641 -21.7941595,-11.15427 -49.4863295,-11.16797 z m 21.18555,21.18555 h 15.57812 c 23.89918,0 35.1705995,9.38356 35.2382795,29.33398 0.0363,10.7154 -4.54191,19.54765 -12.6015595,24.3086 -5.8435,3.45183 -30.81273,6.54092 -35.56641,4.40039 -1.92779,-0.86806 -2.64843,-8.9255 -2.64843,-29.61719 z"
       style="fill:#fb0d0d;fill-opacity:1;stroke:#fb0d0d;stroke-width:2.118644;stroke-opacity:1" />
    <path
       inkscape:connector-curvature="0"
       id="path253"
       d="m 142.42612,405.05181 c -16.79058,-0.15053 -32.89737,7.9349 -43.476573,22.53906 -20.58557,28.41755 -7.6176,69.15542 26.058593,81.85743 17.69758,6.67519 40.77655,1.13166 55.15626,-13.24805 28.97726,-28.97726 16.13753,-77.46445 -23.58008,-89.04688 -4.70228,-1.37127 -9.45685,-2.05941 -14.1582,-2.10156 z m 1.35742,23.9668 c 18.59485,0.22482 29.94726,12.90255 28.54492,31.87695 -0.8837,11.95696 -5.86343,19.39649 -16.78711,25.08008 -8.0643,4.19585 -20.63778,3.6819 -28.5918,-1.16797 -14.1292,-8.61513 -18.5315,-23.29228 -11.65234,-38.84375 5.21051,-11.77922 14.1873,-17.11819 28.48633,-16.94531 z M 41.785487,560.98541 c -15.22621,0 -19.08769,0.64329 -20.12695,3.35156 -1.67943,4.37652 -1.67943,177.4809 0,181.85742 1.03926,2.70827 4.90074,3.35156 20.12695,3.35156 h 18.8418 v -37.07617 -37.07812 h 44.492183 44.49024 v 37.07812 37.07617 h 19.06836 19.06836 V 655.2647 560.98541 h -19.06836 -19.06836 v 35.89257 c 0,26.42225 -0.69691,36.326 -2.64649,37.53907 -3.64395,2.26736 -78.034153,2.50298 -82.628903,0.26171 -3.31431,-1.61667 -3.70703,-5.62053 -3.70703,-37.75 v -35.94335 z"
       style="fill:#fb0d0d;fill-opacity:1;stroke:#fb0d0d;stroke-width:2.118644;stroke-opacity:1" />
    <path
       inkscape:connector-curvature="0"
       id="path263"
       d="m -106.11099,554.66119 c -70.55366,-0.20052 -118.85335,69.82788 -94.92969,137.63476 10.54351,29.8835 37.34149,53.42018 70.99023,62.35157 21.70336,5.76071 45.601007,2.7363 69.544917,-8.80274 12.51269,-6.0301 36.38672,-27.61318 36.38672,-32.89453 0,-1.66969 -6.41181,-8.42606 -14.25,-15.01367 l -14.25195,-11.97656 -8.39453,8.64843 c -12.30306,12.67569 -22.82474,17.33639 -41.675777,18.46289 -12.87899,0.76961 -17.95308,0.12953 -25.53125,-3.22265 -39.19635,-17.33841 -48.87861,-65.65459 -19.11914,-95.41407 22.89412,-22.89411 62.051987,-21.92529 86.638667,2.14258 l 8.9668,8.77735 5.86523,-5.12696 c 15.26264,-13.34255 21.75195,-20.07103 21.75195,-22.55078 0,-4.36048 -21.9084,-24.66438 -33.30859,-30.86914 -12.61241,-6.86453 -33.61106,-12.10368 -48.683587,-12.14648 z m -290.88868,6.32422 v 20.12695 20.12695 h 29.66211 29.66016 v 74.15235 74.15429 h 20.12695 20.12696 v -75.21289 -75.21094 h 29.66211 29.66015 v -19.06836 -19.06835 h -79.44922 z"
       style="fill:#fb0d0d;fill-opacity:1;stroke:#fb0d0d;stroke-width:2.118644;stroke-opacity:1" />
    <path
       inkscape:connector-curvature="0"
       id="path273"
       d="m -787.04654,559.45806 c -9.84728,0.0194 -16.73237,1.89555 -16.73237,5.00196 0,8.31529 50.72254,183.69142 53.66987,185.5664 1.36022,0.86533 11.2717,1.58767 22.02344,1.60547 17.96275,0.0298 19.80098,-0.35468 22.67578,-4.74219 1.72074,-2.62617 10.0544,-28.36939 18.51758,-57.20508 8.46319,-28.83569 15.98254,-52.42773 16.71093,-52.42773 0.72839,0 8.65227,24.48421 17.60938,54.41016 8.95711,29.92594 17.32882,55.66915 18.60351,57.20507 2.55244,3.0755 38.9719,4.01362 43.52149,1.1211 3.64079,-2.31474 57.82052,-185.50956 55.53906,-187.79102 -1.45204,-1.45203 -39.63024,-2.35022 -41.01562,-0.96484 -0.66996,0.66996 -8.90936,29.24785 -18.3086,63.50586 -9.39926,34.25801 -17.48906,62.68828 -17.97851,63.17773 -1.56508,1.56508 -2.06082,0.0621 -18.79102,-57.01953 -9.05047,-30.87924 -17.74956,-59.28235 -19.33203,-63.11719 l -2.87891,-6.97265 -17.49023,0.61718 -17.49024,0.61719 -18.37109,62.09571 c -10.10443,34.15334 -18.92766,62.65422 -19.60742,63.33398 -1.66751,1.66752 -1.34126,2.73564 -18.2793,-59.75195 -8.21227,-30.29661 -15.93221,-57.59098 -17.1543,-60.6543 -1.93879,-4.8599 -3.81825,-5.75127 -14.75195,-6.98828 -3.79516,-0.42937 -7.40702,-0.62952 -10.68945,-0.62305 z m 301.06445,1.52735 v 94.27929 94.28125 h 20.12695 20.12696 V 655.2647 560.98541 h -20.12696 z"
       style="fill:#fb0d0d;fill-opacity:1;stroke:#fb0d0d;stroke-width:2.118644;stroke-opacity:1" />
    <path
       inkscape:connector-curvature="0"
       id="path283"
       d="m -963.73681,750.76132 c -23.574,-6.41586 -34.7935,-11.03518 -36.29289,-14.9426 -1.3507,-3.5199 11.51879,-28.62223 15.44679,-30.12958 1.4779,-0.56711 8.6797,0.95328 16.0039,3.37866 30.3371,10.04594 68.3847,12.18348 85.1172,4.78193 11.3425,-5.01734 17.1534,-12.87818 15.2185,-20.58734 -1.906,-7.5941 -12.5999,-11.86657 -55.4737,-22.16313 -19.6804,-4.72644 -40.5552,-10.77842 -46.3886,-13.44885 -12.3734,-5.66435 -23.757,-16.33447 -27.8321,-26.08763 -3.84629,-9.20547 -3.63869,-24.89566 0.4432,-33.4976 7.2703,-15.3211 27.8169,-30.79829 48.0289,-36.17886 22.8129,-6.07296 76.4144,-2.64793 97.6918,6.24233 8.8036,3.67841 9.3722,6.38085 4.408,20.95018 -5.0889,14.93513 -6.6783,15.59303 -26.9553,11.15788 -23.3752,-5.1128 -54.9874,-6.44064 -66.967,-2.81287 -11.76,3.56128 -18.6558,11.87817 -15.201,18.33357 3.4674,6.47894 6.5225,7.68636 49.2682,19.47161 68.855,18.98373 80.1975,27.58758 80.0901,60.75229 -0.059,18.21867 -4.7089,28.74349 -17.7834,40.25215 -15.8021,13.90956 -30.1719,17.90255 -67.9752,18.88849 -28.6607,0.74749 -33.6509,0.31953 -50.8474,-4.36063 z"
       style="fill:#fb0d0d;fill-opacity:1;stroke:#fb0d0d;stroke-width:2.118644;stroke-opacity:1" />
  </g>
</svg>
