<?xml version="1.0" encoding="UTF-8" standalone="no"?>
<svg
   xmlns:dc="http://purl.org/dc/elements/1.1/"
   xmlns:cc="http://creativecommons.org/ns#"
   xmlns:rdf="http://www.w3.org/1999/02/22-rdf-syntax-ns#"
   xmlns:svg="http://www.w3.org/2000/svg"
   xmlns="http://www.w3.org/2000/svg"
   xmlns:sodipodi="http://sodipodi.sourceforge.net/DTD/sodipodi-0.dtd"
   xmlns:inkscape="http://www.inkscape.org/namespaces/inkscape"
   version="1.1"
   id="svg2"
   width="604.63599"
   height="129.46371"
   viewBox="0 0 604.63599 129.46372"
   sodipodi:docname="tic80.svg"
   inkscape:version="1.0.1 (3bc2e813f5, 2020-09-07)">
  <metadata
     id="metadata8">
    <rdf:RDF>
      <cc:Work
         rdf:about="">
        <dc:format>image/svg+xml</dc:format>
        <dc:type
           rdf:resource="http://purl.org/dc/dcmitype/StillImage" />
        <dc:title></dc:title>
      </cc:Work>
    </rdf:RDF>
  </metadata>
  <defs
     id="defs6" />
  <sodipodi:namedview
     pagecolor="#ffffff"
     bordercolor="#666666"
     borderopacity="1"
     objecttolerance="10"
     gridtolerance="10"
     guidetolerance="10"
     inkscape:pageopacity="0"
     inkscape:pageshadow="2"
     inkscape:window-width="1600"
     inkscape:window-height="837"
     id="namedview4"
     showgrid="false"
     inkscape:zoom="1.5152709"
     inkscape:cx="421.57111"
     inkscape:cy="57.493502"
     inkscape:window-x="-8"
     inkscape:window-y="-8"
     inkscape:window-maximized="1"
     inkscape:current-layer="g61" />
  <g
     inkscape:groupmode="layer"
     inkscape:label="Image"
     id="g10"
     transform="translate(-6.4051778,-35.9866)">
    <g
       id="g61"
       transform="matrix(0.68303197,0,0,0.68303197,16.706064,38.092343)">
      <g
         id="g82"
         transform="matrix(1,0,0,0.88438503,0,8.8344697)">
        <path
           style="fill:#000000;fill-opacity:0;stroke:#000000;stroke-width:2.29926;stroke-opacity:0"
           d="m 39.266907,128.19798 c 0,-50.17776 -0.103411,-55.734682 -1.043897,-56.095581 C 37.648865,71.88208 29.333521,71.701818 19.744465,71.701818 H 2.3098181 V 55.533092 39.364365 H 55.765607 109.2214 V 55.533092 71.701818 H 92.776673 c -9.0446,0 -16.914481,0.180262 -17.488622,0.400581 -0.574148,0.22032 -1.043899,0.814273 -1.043899,1.319896 0,0.505623 -0.445465,0.919315 -0.989922,0.919315 -0.871983,0 -0.989922,6.526153 -0.989922,54.77569 v 54.77568 h -16.498701 -16.4987 z"
           id="path16"
           transform="matrix(1.4640603,0,0,1.4640603,-24.458685,-55.769488)" />
        <path
           style="fill:#000000;fill-opacity:0;stroke:#000000;stroke-width:2.29926;stroke-opacity:0"
           d="m 39.266907,128.19798 c 0,-50.17776 -0.103411,-55.734682 -1.043897,-56.095581 C 37.648865,71.88208 29.333521,71.701818 19.744465,71.701818 H 2.3098181 V 55.533092 39.364365 H 55.765607 109.2214 V 55.533092 71.701818 H 92.776673 c -9.0446,0 -16.914481,0.180262 -17.488622,0.400581 -0.574148,0.22032 -1.043899,0.814273 -1.043899,1.319896 0,0.505623 -0.445465,0.919315 -0.989922,0.919315 -0.871983,0 -0.989922,6.526153 -0.989922,54.77569 v 54.77568 h -16.498701 -16.4987 z"
           id="path18"
           transform="matrix(1.4640603,0,0,1.4640603,-24.458685,-55.769488)" />
        <path
           style="fill:#000000;fill-opacity:0;stroke:#000000;stroke-width:2.29926;stroke-opacity:0"
           d="m 39.266907,128.19798 c 0,-50.17776 -0.103411,-55.734682 -1.043897,-56.095581 C 37.648865,71.88208 29.333521,71.701818 19.744465,71.701818 H 2.3098181 V 55.533092 39.364365 H 55.765607 109.2214 V 55.533092 71.701818 H 92.776673 c -9.0446,0 -16.914481,0.180262 -17.488622,0.400581 -0.574148,0.22032 -1.043899,0.814273 -1.043899,1.319896 0,0.505623 -0.445465,0.919315 -0.989922,0.919315 -0.871983,0 -0.989922,6.526153 -0.989922,54.77569 v 54.77568 h -16.498701 -16.4987 z"
           id="path20"
           transform="matrix(1.4640603,0,0,1.4640603,-24.458685,-55.769488)" />
        <path
           style="fill:#000000;fill-opacity:0;stroke:#000000;stroke-width:2.29926;stroke-opacity:0"
           d="m 149.47823,168.08407 v -15.8089 l 18.0502,-0.19484 18.05021,-0.19483 1.73683,-1.64987 1.73683,-1.64987 0.0114,-36.64514 0.0114,-36.645141 -2.04771,-1.796831 -2.0477,-1.79683 H 167.22896 149.47823 V 55.533092 39.364365 h 53.45578 53.45579 v 16.168727 16.168726 h -16.21211 c -16.06662,0 -18.76513,0.325347 -18.76513,2.262431 0,0.492852 -0.44547,1.067036 -0.98992,1.275963 -1.49581,0.573997 -1.49581,71.755468 0,73.251268 0.54445,0.54446 0.98992,1.31546 0.98992,1.71335 0,1.58565 4.05438,2.01065 19.18145,2.01065 h 15.79579 v 15.83875 15.83875 h -53.45579 -53.45578 z"
           id="path22"
           transform="matrix(1.4640603,0,0,1.4640603,-24.458685,-55.769488)" />
        <path
           style="fill:#000000;fill-opacity:0;stroke:#000000;stroke-width:2.29926;stroke-opacity:0"
           d="M 299.28642,111.62867 V 39.364365 h 53.45579 53.45579 v 16.168727 16.168726 h -35.23935 -35.23936 l -2.04771,1.79683 -2.0477,1.796831 v 37.389271 c 0,33.96563 0.0999,37.4722 1.09074,38.29501 0.88887,0.7381 7.7901,0.94119 37.28706,1.09725 l 36.19632,0.19151 v 15.81223 15.81223 h -53.45579 -53.45579 z"
           id="path24"
           transform="matrix(1.4640603,0,0,1.4640603,-24.458685,-55.769488)" />
        <path
           style="fill:#000000;fill-opacity:0;stroke:none;stroke-width:2.29926;stroke-opacity:0"
           d="m 39.266907,128.19798 c 0,-50.17776 -0.103411,-55.734682 -1.043897,-56.095581 C 37.648865,71.88208 29.333521,71.701818 19.744465,71.701818 H 2.3098181 V 55.533092 39.364365 H 55.765607 109.2214 V 55.533092 71.701818 H 92.776673 c -9.0446,0 -16.914481,0.180262 -17.488622,0.400581 -0.574148,0.22032 -1.043899,0.814273 -1.043899,1.319896 0,0.505623 -0.445465,0.919315 -0.989922,0.919315 -0.871983,0 -0.989922,6.526153 -0.989922,54.77569 v 54.77568 h -16.498701 -16.4987 z"
           id="path28"
           transform="matrix(1.4640603,0,0,1.4640603,-24.458685,-55.769488)" />
        <path
           style="fill:#000000;fill-opacity:0;stroke:none;stroke-width:2.29926;stroke-opacity:0"
           d="m 39.266907,128.19798 c 0,-50.17776 -0.103411,-55.734682 -1.043897,-56.095581 C 37.648865,71.88208 29.333521,71.701818 19.744465,71.701818 H 2.3098181 V 55.533092 39.364365 H 55.765607 109.2214 V 55.533092 71.701818 H 92.776673 c -9.0446,0 -16.914481,0.180262 -17.488622,0.400581 -0.574148,0.22032 -1.043899,0.814273 -1.043899,1.319896 0,0.505623 -0.445465,0.919315 -0.989922,0.919315 -0.871983,0 -0.989922,6.526153 -0.989922,54.77569 v 54.77568 h -16.498701 -16.4987 z"
           id="path30"
           transform="matrix(1.4640603,0,0,1.4640603,-24.458685,-55.769488)" />
        <path
           id="path32"
           style="fill:#000000;fill-opacity:0;stroke:none;stroke-width:2.29926;stroke-opacity:0"
           d="M 2.3105469,39.365234 V 55.533203 71.701172 H 19.744141 c 9.589056,0 17.90437,0.180072 18.478515,0.40039 0.940486,0.360899 1.044922,5.917944 1.044922,56.095708 v 55.69531 h 16.498047 16.498047 v -54.77539 c 0,-48.24954 0.118251,-54.775393 0.990234,-54.775393 0.544457,0 0.990235,-0.414299 0.990235,-0.919922 0,-0.505623 0.46882,-1.099992 1.042968,-1.320313 0.574141,-0.220319 8.445635,-0.40039 17.490235,-0.40039 H 109.2207 V 55.533203 39.365234 H 55.765625 Z m 147.1679731,0 v 16.167969 16.167969 h 17.75 17.75195 l 2.04687,1.796875 2.04688,1.796875 -0.01,36.646488 -0.0117,36.64453 -1.73632,1.65039 -1.73829,1.64844 -18.04882,0.19531 -18.05078,0.19531 v 15.80859 15.8086 h 53.45507 53.45703 v -15.83789 -15.83985 h -15.79687 c -15.12707,0 -19.18164,-0.42411 -19.18164,-2.00976 0,-0.39789 -0.44578,-1.16843 -0.99023,-1.71289 -1.49582,-1.4958 -1.49582,-72.677959 0,-73.251956 0.54444,-0.208927 0.99023,-0.782538 0.99023,-1.27539 0,-1.937084 2.699,-2.263672 18.76562,-2.263672 h 16.21289 V 55.533203 39.365234 h -53.45703 z"
           transform="matrix(1.4640603,0,0,1.4640603,-24.458685,-55.769488)" />
        <path
           id="path40"
           style="fill:#0000ff;fill-opacity:1;stroke:none;stroke-width:2.29926;stroke-opacity:0"
           d="M 2.3105469,39.365234 V 55.533203 71.701172 H 19.744141 c 9.589056,0 17.90437,0.180073 18.478515,0.40039 0.940486,0.3609 1.044922,5.91794 1.044922,56.095708 v 55.69531 h 16.498047 16.498047 v -54.77539 c 0,-48.249542 0.118251,-54.775393 0.990234,-54.775393 0.544457,0 0.990235,-0.414299 0.990235,-0.919922 0,-0.505623 0.46882,-1.099992 1.042968,-1.320313 0.574141,-0.220319 8.445635,-0.40039 17.490235,-0.40039 H 109.2207 V 55.533203 39.365234 H 55.765625 Z m 147.1679731,0 v 16.167969 16.167969 h 17.75 17.75195 l 2.04687,1.796875 2.04688,1.796875 -0.01,36.646488 -0.0117,36.64453 -1.73632,1.65039 -1.73829,1.64844 -18.04882,0.19531 -18.05078,0.19531 v 15.80859 15.8086 h 53.45507 53.45703 v -15.83789 -15.83985 h -15.79687 c -15.12707,0 -19.18164,-0.42411 -19.18164,-2.00976 0,-0.39789 -0.44578,-1.16843 -0.99023,-1.71289 -1.49582,-1.4958 -1.49582,-72.677959 0,-73.251956 0.54444,-0.208927 0.99023,-0.782538 0.99023,-1.27539 0,-1.937084 2.699,-2.263672 18.76562,-2.263672 h 16.21289 V 55.533203 39.365234 h -53.45703 z m 149.80859,0 v 72.263676 72.26367 h 53.45508 53.45508 v -15.8125 -15.8125 l -36.19532,-0.19141 c -29.49696,-0.15606 -36.39824,-0.3576 -37.28711,-1.0957 -0.99084,-0.82281 -1.09179,-4.32929 -1.09179,-38.29492 V 75.294922 l 2.04883,-1.796875 2.04687,-1.796875 h 35.24023 35.23829 V 55.533203 39.365234 h -53.45508 z" />
        <path
           style="fill:#ff0000;fill-opacity:1;stroke:none;stroke-width:2.29926;stroke-opacity:0"
           d="M 449.09462,92.160207 V 75.001558 h 53.45579 53.45579 v 17.158649 17.158643 h -53.45579 -53.45579 z"
           id="path51" />
        <path
           id="path53"
           style="fill:#000080;fill-opacity:1;stroke:none;stroke-width:2.29926;stroke-opacity:0"
           d="M 598.90234,1.7480469 V 92.820312 183.89258 h 52.4668 52.46484 V 92.820312 1.7480469 h -52.46484 z m 147.16797,0 V 92.820312 183.89258 h 53.45703 53.45508 V 92.820312 1.7480469 H 799.52734 Z M 651.29688,34.744141 c 16.52079,0 19.54101,0.145965 19.54101,0.945312 0,0.519997 0.59683,1.137034 1.32813,1.369141 1.29881,0.412227 1.32693,0.876081 1.15625,20.007812 l -0.17579,19.585938 -21.82421,0.171875 c -12.00349,0.09555 -22.02665,-0.02664 -22.27344,-0.273438 -0.2468,-0.246795 -0.4435,-9.086157 -0.4375,-19.642578 l 0.0117,-19.193359 1.5664,-1.484375 c 1.55203,-1.471173 1.74738,-1.486328 21.10743,-1.486328 z m 149.55078,0 h 19.79687 v 58.328125 58.330074 l -1.48437,0.39649 c -1.96066,0.52543 -35.89434,0.38251 -38.44141,-0.16211 l -1.98047,-0.42383 -0.16797,-56.86914 c -0.1673,-56.415517 -0.15871,-56.870375 1.1543,-57.287109 0.72796,-0.231043 1.32422,-0.847191 1.32422,-1.367188 0,-0.799624 3.05408,-0.945312 19.79883,-0.945312 z m -149.8711,74.574219 c 19.42026,0 19.86133,0.0297 19.86133,1.32031 0,0.87993 0.43843,1.32031 1.31836,1.32031 1.2886,0 1.32031,0.4387 1.32031,18.53907 0,17.98531 -0.0399,18.5519 -1.32031,18.88672 -0.72594,0.18984 -1.31836,0.72184 -1.31836,1.18164 0,0.45979 -0.66964,1.01356 -1.48633,1.23242 -0.81668,0.21887 -9.50327,0.4032 -19.30468,0.4082 l -17.82032,0.008 -1.8125,-1.91992 -1.81445,-1.91992 v -18.20898 c 0,-15.06252 0.15881,-18.20704 0.91406,-18.20704 0.50212,0 1.06797,-0.59437 1.25781,-1.32031 0.33551,-1.283 0.89988,-1.32031 20.20508,-1.32031 z" />
      </g>
    </g>
  </g>
</svg>
